G04*
G04 #@! TF.GenerationSoftware,Altium Limited,Altium Designer,20.2.4 (192)*
G04*
G04 Layer_Color=16711935*
%FSLAX44Y44*%
%MOMM*%
G71*
G04*
G04 #@! TF.SameCoordinates,914F8371-8902-4B0D-8680-DBDBB12D949F*
G04*
G04*
G04 #@! TF.FilePolarity,Negative*
G04*
G01*
G75*
%ADD10C,0.0000*%
%ADD21C,2.1032*%
%ADD22P,2.9744X4X75.0*%
%ADD23P,2.9744X4X105.0*%
%ADD24R,2.1032X2.1032*%
%ADD25P,2.9744X4X165.0*%
%ADD26P,2.9744X4X195.0*%
%ADD27R,2.1032X2.1032*%
%ADD28C,1.7272*%
%ADD29P,2.6915X4X90.0*%
%ADD30P,2.6915X4X120.0*%
%ADD31P,2.6915X4X150.0*%
%ADD32P,2.6915X4X180.0*%
%ADD33P,2.6915X4X210.0*%
%ADD34P,2.6915X4X240.0*%
%ADD35C,2.1032*%
%ADD36O,2.1032X2.1032*%
%ADD37R,2.1032X2.1032*%
%ADD38C,0.6604*%
D10*
X835049Y1077670D02*
G03*
X835049Y1077670I-8710J0D01*
G01*
X813052Y1064970D02*
G03*
X813052Y1064970I-8710J0D01*
G01*
X703960Y955879D02*
G03*
X703960Y955879I-8710J0D01*
G01*
X691260Y933882D02*
G03*
X691260Y933882I-8710J0D01*
G01*
X651330Y784860D02*
G03*
X651330Y784860I-8710J0D01*
G01*
X651330Y759460D02*
G03*
X651330Y759460I-8710J0D01*
G01*
X691260Y610439D02*
G03*
X691260Y610439I-8710J0D01*
G01*
X703960Y588442D02*
G03*
X703960Y588442I-8710J0D01*
G01*
X813051Y479350D02*
G03*
X813051Y479350I-8710J0D01*
G01*
X835049Y466650D02*
G03*
X835049Y466650I-8710J0D01*
G01*
X984070Y426720D02*
G03*
X984070Y426720I-8710J0D01*
G01*
X1009470D02*
G03*
X1009470Y426720I-8710J0D01*
G01*
X1158491Y466650D02*
G03*
X1158491Y466650I-8710J0D01*
G01*
X1180489Y479350D02*
G03*
X1180489Y479350I-8710J0D01*
G01*
X1289580Y588441D02*
G03*
X1289580Y588441I-8710J0D01*
G01*
X1302280Y610438D02*
G03*
X1302280Y610438I-8710J0D01*
G01*
X1342210Y759460D02*
G03*
X1342210Y759460I-8710J0D01*
G01*
Y784860D02*
G03*
X1342210Y784860I-8710J0D01*
G01*
X1302280Y933881D02*
G03*
X1302280Y933881I-8710J0D01*
G01*
X1289580Y955879D02*
G03*
X1289580Y955879I-8710J0D01*
G01*
X1180489Y1064970D02*
G03*
X1180489Y1064970I-8710J0D01*
G01*
X1158492Y1077670D02*
G03*
X1158492Y1077670I-8710J0D01*
G01*
X1009470Y1117600D02*
G03*
X1009470Y1117600I-8710J0D01*
G01*
X984070D02*
G03*
X984070Y1117600I-8710J0D01*
G01*
X1216480Y798960D02*
G03*
X1216480Y798960I-8710J0D01*
G01*
Y824360D02*
G03*
X1216480Y824360I-8710J0D01*
G01*
X1166480Y798960D02*
G03*
X1166480Y798960I-8710J0D01*
G01*
Y824360D02*
G03*
X1166480Y824360I-8710J0D01*
G01*
Y773560D02*
G03*
X1166480Y773560I-8710J0D01*
G01*
Y748160D02*
G03*
X1166480Y748160I-8710J0D01*
G01*
X1216480Y773560D02*
G03*
X1216480Y773560I-8710J0D01*
G01*
Y748160D02*
G03*
X1216480Y748160I-8710J0D01*
G01*
D21*
X826339Y1077670D02*
D03*
X695250Y955879D02*
D03*
X642620Y784860D02*
D03*
X682550Y610439D02*
D03*
X804341Y479350D02*
D03*
X975360Y426720D02*
D03*
X1149781Y466650D02*
D03*
X1280870Y588441D02*
D03*
X1333500Y759460D02*
D03*
X1293570Y933881D02*
D03*
X1171779Y1064970D02*
D03*
X1000760Y1117600D02*
D03*
X1207770Y798960D02*
D03*
Y824360D02*
D03*
X1157770Y798960D02*
D03*
Y824360D02*
D03*
Y773560D02*
D03*
Y748160D02*
D03*
X1207770Y773560D02*
D03*
Y748160D02*
D03*
D22*
X804342Y1064970D02*
D03*
X1171778Y479350D02*
D03*
D23*
X682550Y933882D02*
D03*
X1293570Y610438D02*
D03*
D24*
X642620Y759460D02*
D03*
X1333500Y784860D02*
D03*
D25*
X695250Y588442D02*
D03*
X1280870Y955879D02*
D03*
D26*
X826339Y466650D02*
D03*
X1149781Y1077670D02*
D03*
D27*
X1000760Y426720D02*
D03*
X975360Y1117600D02*
D03*
D28*
X1013060Y634286D02*
D03*
X963060D02*
D03*
D29*
X736151Y1025600D02*
D03*
X1239969Y518720D02*
D03*
D30*
X643180Y865691D02*
D03*
X1332940Y678629D02*
D03*
D31*
X642620Y680720D02*
D03*
X1333500Y863600D02*
D03*
D32*
X734620Y520251D02*
D03*
X1241500Y1024069D02*
D03*
D33*
X894529Y427280D02*
D03*
X1081591Y1117040D02*
D03*
D34*
X1079500Y426720D02*
D03*
X896620Y1117600D02*
D03*
D35*
X768350Y748160D02*
D03*
D36*
Y773560D02*
D03*
Y798960D02*
D03*
D37*
Y824360D02*
D03*
D38*
X1033620Y676910D02*
D03*
M02*
