G04*
G04 #@! TF.GenerationSoftware,Altium Limited,Altium Designer,20.2.4 (192)*
G04*
G04 Layer_Color=8421504*
%FSLAX44Y44*%
%MOMM*%
G71*
G04*
G04 #@! TF.SameCoordinates,914F8371-8902-4B0D-8680-DBDBB12D949F*
G04*
G04*
G04 #@! TF.FilePolarity,Positive*
G04*
G01*
G75*
%ADD13R,0.5000X1.5000*%
%ADD14R,1.5000X0.5000*%
%ADD15R,1.1000X1.4000*%
%ADD16R,1.4000X1.1000*%
D13*
X948060Y831160D02*
D03*
X956060D02*
D03*
X964060D02*
D03*
X972060D02*
D03*
X980060D02*
D03*
X988060D02*
D03*
X996060D02*
D03*
X1004060D02*
D03*
X1012060D02*
D03*
X1020060D02*
D03*
X1028060D02*
D03*
Y713160D02*
D03*
X1020060D02*
D03*
X1012060D02*
D03*
X1004060D02*
D03*
X996060D02*
D03*
X988060D02*
D03*
X980060D02*
D03*
X972060D02*
D03*
X964060D02*
D03*
X956060D02*
D03*
X948060D02*
D03*
D14*
X1047060Y812160D02*
D03*
Y804160D02*
D03*
Y796160D02*
D03*
Y788160D02*
D03*
Y780160D02*
D03*
Y772160D02*
D03*
Y764160D02*
D03*
Y756160D02*
D03*
Y748160D02*
D03*
Y740160D02*
D03*
Y732160D02*
D03*
X929060D02*
D03*
Y740160D02*
D03*
Y748160D02*
D03*
Y756160D02*
D03*
Y764160D02*
D03*
Y772160D02*
D03*
Y780160D02*
D03*
Y788160D02*
D03*
Y796160D02*
D03*
Y804160D02*
D03*
Y812160D02*
D03*
D15*
X963060Y676910D02*
D03*
X943060D02*
D03*
X866300Y741680D02*
D03*
X886300D02*
D03*
Y770890D02*
D03*
X866300D02*
D03*
X886300Y796290D02*
D03*
X866300D02*
D03*
X1013620Y676910D02*
D03*
X1033620D02*
D03*
D16*
X891540Y694530D02*
D03*
Y674530D02*
D03*
X964060Y888840D02*
D03*
Y868840D02*
D03*
X825500Y824390D02*
D03*
Y844390D02*
D03*
M02*
