G04*
G04 #@! TF.GenerationSoftware,Altium Limited,Altium Designer,20.2.4 (192)*
G04*
G04 Layer_Color=2752767*
%FSLAX44Y44*%
%MOMM*%
G71*
G04*
G04 #@! TF.SameCoordinates,914F8371-8902-4B0D-8680-DBDBB12D949F*
G04*
G04*
G04 #@! TF.FilePolarity,Positive*
G04*
G01*
G75*
%ADD58C,0.0508*%
%ADD59C,0.0677*%
D58*
X824307Y1075638D02*
Y1079702D01*
X828371D01*
Y1075638D01*
X824307D01*
X802309Y1062938D02*
Y1067002D01*
X806374D01*
Y1062938D01*
X802309D01*
X693218Y953847D02*
Y957911D01*
X697282D01*
Y953847D01*
X693218D01*
X680518Y931850D02*
Y935913D01*
X684582D01*
Y931850D01*
X680518D01*
X640588Y782828D02*
Y786892D01*
X644652D01*
Y782828D01*
X640588D01*
X640588Y757428D02*
Y761492D01*
X644652D01*
Y757428D01*
X640588D01*
X680518Y608407D02*
Y612471D01*
X684582D01*
Y608407D01*
X680518D01*
X693218Y586409D02*
Y590474D01*
X697282D01*
Y586409D01*
X693218D01*
X802309Y477318D02*
Y481382D01*
X806373D01*
Y477318D01*
X802309D01*
X824306Y464618D02*
Y468682D01*
X828371D01*
Y464618D01*
X824306D01*
X973328Y424688D02*
Y428752D01*
X977392D01*
Y424688D01*
X973328D01*
X998728D02*
Y428752D01*
X1002792D01*
Y424688D01*
X998728D01*
X1147749Y464618D02*
Y468682D01*
X1151813D01*
Y464618D01*
X1147749D01*
X1169746Y477318D02*
Y481382D01*
X1173811D01*
Y477318D01*
X1169746D01*
X1278838Y586409D02*
Y590473D01*
X1282902D01*
Y586409D01*
X1278838D01*
X1291538Y608406D02*
Y612471D01*
X1295602D01*
Y608406D01*
X1291538D01*
X1331468Y757428D02*
Y761492D01*
X1335532D01*
Y757428D01*
X1331468D01*
Y782828D02*
Y786892D01*
X1335532D01*
Y782828D01*
X1331468D01*
X1291538Y931849D02*
Y935913D01*
X1295602D01*
Y931849D01*
X1291538D01*
X1278838Y953847D02*
Y957911D01*
X1282902D01*
Y953847D01*
X1278838D01*
X1169747Y1062938D02*
Y1067002D01*
X1173811D01*
Y1062938D01*
X1169747D01*
X1147749Y1075638D02*
Y1079702D01*
X1151814D01*
Y1075638D01*
X1147749D01*
X998728Y1115568D02*
Y1119632D01*
X1002792D01*
Y1115568D01*
X998728D01*
X973328D02*
Y1119632D01*
X977392D01*
Y1115568D01*
X973328D01*
X736151Y1023568D02*
X734119Y1027632D01*
X738183D01*
X736151Y1023568D01*
X643180Y863659D02*
X641148Y867723D01*
X645212D01*
X643180Y863659D01*
X642620Y678688D02*
X640588Y682752D01*
X644652D01*
X642620Y678688D01*
X734620Y518219D02*
X732588Y522283D01*
X736652D01*
X734620Y518219D01*
X894529Y425248D02*
X892497Y429312D01*
X896561D01*
X894529Y425248D01*
X1079500Y424688D02*
X1077468Y428752D01*
X1081532D01*
X1079500Y424688D01*
X1239969Y516688D02*
X1237937Y520752D01*
X1242001D01*
X1239969Y516688D01*
X1332940Y676597D02*
X1330908Y680661D01*
X1334972D01*
X1332940Y676597D01*
X1333500Y861568D02*
X1331468Y865632D01*
X1335532D01*
X1333500Y861568D01*
X1241500Y1022037D02*
X1239468Y1026101D01*
X1243532D01*
X1241500Y1022037D01*
X1081591Y1115008D02*
X1079559Y1119072D01*
X1083623D01*
X1081591Y1115008D01*
X896620Y1115568D02*
X894588Y1119632D01*
X898652D01*
X896620Y1115568D01*
X1205738Y796928D02*
Y800992D01*
X1209802D01*
Y796928D01*
X1205738D01*
Y822328D02*
Y826392D01*
X1209802D01*
Y822328D01*
X1205738D01*
X1155738Y796928D02*
Y800992D01*
X1159802D01*
Y796928D01*
X1155738D01*
Y822328D02*
Y826392D01*
X1159802D01*
Y822328D01*
X1155738D01*
Y771528D02*
Y775592D01*
X1159802D01*
Y771528D01*
X1155738D01*
Y746128D02*
Y750192D01*
X1159802D01*
Y746128D01*
X1155738D01*
X1205738Y771528D02*
Y775592D01*
X1209802D01*
Y771528D01*
X1205738D01*
Y746128D02*
Y750192D01*
X1209802D01*
Y746128D01*
X1205738D01*
X766318D02*
Y750192D01*
X770382D01*
Y746128D01*
X766318D01*
Y771528D02*
Y775592D01*
X770382D01*
Y771528D01*
X766318D01*
Y796928D02*
Y800992D01*
X770382D01*
Y796928D01*
X766318D01*
Y822328D02*
Y826392D01*
X770382D01*
Y822328D01*
X766318D01*
X1145540Y612648D02*
X1146556Y613664D01*
X1147572D01*
X1146556Y614680D01*
X1147572Y615696D01*
X1146556D01*
X1145540Y616712D01*
X1144524Y615696D01*
X1143508D01*
X1144524Y614680D01*
X1143508Y613664D01*
X1144524D01*
X1145540Y612648D01*
X830580D02*
X831596Y613664D01*
X832612D01*
X831596Y614680D01*
X832612Y615696D01*
X831596D01*
X830580Y616712D01*
X829564Y615696D01*
X828548D01*
X829564Y614680D01*
X828548Y613664D01*
X829564D01*
X830580Y612648D01*
Y963168D02*
X831596Y964184D01*
X832612D01*
X831596Y965200D01*
X832612Y966216D01*
X831596D01*
X830580Y967232D01*
X829564Y966216D01*
X828548D01*
X829564Y965200D01*
X828548Y964184D01*
X829564D01*
X830580Y963168D01*
X1145540D02*
X1146556Y964184D01*
X1147572D01*
X1146556Y965200D01*
X1147572Y966216D01*
X1146556D01*
X1145540Y967232D01*
X1144524Y966216D01*
X1143508D01*
X1144524Y965200D01*
X1143508Y964184D01*
X1144524D01*
X1145540Y963168D01*
X1146556Y964184D01*
X1147572D01*
X1146556Y965200D01*
X1147572Y966216D01*
X1146556D01*
X1145540Y967232D01*
X1144524Y966216D01*
X1143508D01*
X1144524Y965200D01*
X1143508Y964184D01*
X1144524D01*
X1145540Y963168D01*
X1026668Y729488D02*
X1027684Y731520D01*
X1026668Y733552D01*
X1028700Y732536D01*
X1030732Y733552D01*
X1029716Y731520D01*
X1030732Y729488D01*
X1028700Y730504D01*
X1026668Y729488D01*
X973328Y761238D02*
X974344Y763270D01*
X973328Y765302D01*
X975360Y764286D01*
X977392Y765302D01*
X976376Y763270D01*
X977392Y761238D01*
X975360Y762254D01*
X973328Y761238D01*
X1071973Y759710D02*
X1072989Y761742D01*
X1071973Y763774D01*
X1074005Y762758D01*
X1076037Y763774D01*
X1075021Y761742D01*
X1076037Y759710D01*
X1074005Y760726D01*
X1071973Y759710D01*
X1031588Y674878D02*
X1032604Y676910D01*
X1031588Y678942D01*
X1033620Y677926D01*
X1035652Y678942D01*
X1034636Y676910D01*
X1035652Y674878D01*
X1033620Y675894D01*
X1031588Y674878D01*
X846328Y753618D02*
X847344Y755650D01*
X846328Y757682D01*
X848360Y756666D01*
X850392Y757682D01*
X849376Y755650D01*
X850392Y753618D01*
X848360Y754634D01*
X846328Y753618D01*
X837438Y740918D02*
X838454Y742950D01*
X837438Y744982D01*
X839470Y743966D01*
X841502Y744982D01*
X840486Y742950D01*
X841502Y740918D01*
X839470Y741934D01*
X837438Y740918D01*
X1040638Y710438D02*
X1041654Y712470D01*
X1040638Y714502D01*
X1042670Y713486D01*
X1044702Y714502D01*
X1043686Y712470D01*
X1044702Y710438D01*
X1042670Y711454D01*
X1040638Y710438D01*
X1090168Y747268D02*
X1091184Y749300D01*
X1090168Y751332D01*
X1092200Y750316D01*
X1094232Y751332D01*
X1093216Y749300D01*
X1094232Y747268D01*
X1092200Y748284D01*
X1090168Y747268D01*
X1026160Y801878D02*
X1027176Y803910D01*
X1026160Y805942D01*
X1028192Y804926D01*
X1030224Y805942D01*
X1029208Y803910D01*
X1030224Y801878D01*
X1028192Y802894D01*
X1026160Y801878D01*
X1018907Y802019D02*
X1019923Y804051D01*
X1018907Y806083D01*
X1020939Y805067D01*
X1022971Y806083D01*
X1021955Y804051D01*
X1022971Y802019D01*
X1020939Y803035D01*
X1018907Y802019D01*
X1043178Y828548D02*
X1044194Y830580D01*
X1043178Y832612D01*
X1045210Y831596D01*
X1047242Y832612D01*
X1046226Y830580D01*
X1047242Y828548D01*
X1045210Y829564D01*
X1043178Y828548D01*
X1199388Y879348D02*
X1200404Y881380D01*
X1199388Y883412D01*
X1201420Y882396D01*
X1203452Y883412D01*
X1202436Y881380D01*
X1203452Y879348D01*
X1201420Y880364D01*
X1199388Y879348D01*
X1280668Y850138D02*
X1281684Y852170D01*
X1280668Y854202D01*
X1282700Y853186D01*
X1284732Y854202D01*
X1283716Y852170D01*
X1284732Y850138D01*
X1282700Y851154D01*
X1280668Y850138D01*
X1010158Y801878D02*
X1011174Y803910D01*
X1010158Y805942D01*
X1012190Y804926D01*
X1014222Y805942D01*
X1013206Y803910D01*
X1014222Y801878D01*
X1012190Y802894D01*
X1010158Y801878D01*
X1001268D02*
X1002284Y803910D01*
X1001268Y805942D01*
X1003300Y804926D01*
X1005332Y805942D01*
X1004316Y803910D01*
X1005332Y801878D01*
X1003300Y802894D01*
X1001268Y801878D01*
X988060Y777748D02*
X989076Y779780D01*
X988060Y781812D01*
X990092Y780796D01*
X992124Y781812D01*
X991108Y779780D01*
X992124Y777748D01*
X990092Y778764D01*
X988060Y777748D01*
X994918Y785368D02*
X995934Y787400D01*
X994918Y789432D01*
X996950Y788416D01*
X998982Y789432D01*
X997966Y787400D01*
X998982Y785368D01*
X996950Y786384D01*
X994918Y785368D01*
X1128268Y777748D02*
X1129284Y779780D01*
X1128268Y781812D01*
X1130300Y780796D01*
X1132332Y781812D01*
X1131316Y779780D01*
X1132332Y777748D01*
X1130300Y778764D01*
X1128268Y777748D01*
X963168Y758698D02*
X964184Y760730D01*
X963168Y762762D01*
X965200Y761746D01*
X967232Y762762D01*
X966216Y760730D01*
X967232Y758698D01*
X965200Y759714D01*
X963168Y758698D01*
X1010158Y744728D02*
X1011174Y746760D01*
X1010158Y748792D01*
X1012190Y747776D01*
X1014222Y748792D01*
X1013206Y746760D01*
X1014222Y744728D01*
X1012190Y745744D01*
X1010158Y744728D01*
X1017778Y752348D02*
X1018794Y754380D01*
X1017778Y756412D01*
X1019810Y755396D01*
X1021842Y756412D01*
X1020826Y754380D01*
X1021842Y752348D01*
X1019810Y753364D01*
X1017778Y752348D01*
X1002538Y740918D02*
X1003554Y742950D01*
X1002538Y744982D01*
X1004570Y743966D01*
X1006602Y744982D01*
X1005586Y742950D01*
X1006602Y740918D01*
X1004570Y741934D01*
X1002538Y740918D01*
X993648Y737108D02*
X994664Y739140D01*
X993648Y741172D01*
X995680Y740156D01*
X997712Y741172D01*
X996696Y739140D01*
X997712Y737108D01*
X995680Y738124D01*
X993648Y737108D01*
D59*
X1015092Y634286D02*
G03*
X1015092Y634286I-2032J0D01*
G01*
X965092D02*
G03*
X965092Y634286I-2032J0D01*
G01*
M02*
