M48
;Layer_Color=9474304
;FILE_FORMAT=4:4
METRIC,LZ
;TYPE=PLATED
T1F00S00C0.3810
T2F00S00C0.7620
T3F00S00C0.9000
T4F00S00C1.0000
T5F00S00C3.0000
%
T01
X0083947Y0074295
X0084836Y0075565
X009652Y0076073
X0097536Y0076327
X00990092Y0077978
X0099695Y007874
X0099568Y0073914
X0100457Y0074295
X0101219Y0074676
X0101981Y0075438
X010287Y0073152
X0104267Y0071247
X0103362Y0067691
X01074005Y00761742
X010922Y007493
X011303Y0077978
X01028192Y0080391
X01020939Y00804051
X0101219Y0080391
X010033
X0104521Y0083058
X0120142Y0088138
X012827Y0085217
T02
X0096306Y00634286
X0101306
T03
X0128087Y00588441
X0129357Y00610438
X013335Y0075946
Y0078486
X0120777Y0077356
Y0074816
X0115777
Y0077356
X01171778Y0047935
X01149781Y0046665
X0100076Y0042672
X0097536
X00826339Y0046665
X00804341Y0047935
X0069525Y00588442
X0068255Y00610439
X0064262Y0075946
X0064262Y0078486
X0076835Y0077356
Y0074816
Y0079896
Y0082436
X0068255Y00933882
X0069525Y00955879
X00804342Y0106497
X00826339Y0107767
X0097536Y011176
X0100076
X01149781Y0107767
X01171779Y0106497
X0115777Y0082436
Y0079896
X0120777
Y0082436
X0129357Y00933881
X0128087Y00955879
T04
X01239969Y0051872
X0133294Y00678629
X010795Y0042672
X00894529Y0042728
X0073462Y00520251
X0064262Y0068072
X0064318Y00865691
X00736151Y010256
X0089662Y011176
X01081591Y0111704
X012415Y01024069
X013335Y008636
T05
X0083058Y0061468
X0114554
Y009652
X0083058
M30
