M48
;Layer_Color=9474304
;FILE_FORMAT=4:4
METRIC,LZ
;TYPE=PLATED
T1F00S00C0.7300
T2F00S00C0.9000
T3F00S00C1.0000
T4F00S00C1.2700
T5F00S00C1.6000
T6F00S00C5.0000
%
T01
X0085389Y0016002
X0093681
X0093801Y00354584
X0085509
Y00549148
X0093801
X0093674Y00743712
X0085382
Y00938276
X0093674
T02
X0088258Y0013208
X0090798
T03
X0081153Y0013208
X0097917
Y00326644
X0081153
Y00521208
X0097917
Y00715772
X0081153
Y00910336
X0097917
Y011049
X0081153
T04
X0089535Y0018738
X0094535Y0020838
X0089535Y00381944
X0094535Y00402944
Y00597508
X0089535Y00576508
Y00771072
X0094535Y00792072
Y00986636
X0089535Y00965636
T05
X0084535Y0029788
Y00492444
Y00687008
Y00881572
Y01076136
T06
X0089535Y0024638
Y00440944
Y00635508
Y00830072
Y01024636
M30
