G04*
G04 #@! TF.GenerationSoftware,Altium Limited,Altium Designer,20.2.4 (192)*
G04*
G04 Layer_Physical_Order=2*
G04 Layer_Color=16711680*
%FSLAX44Y44*%
%MOMM*%
G71*
G04*
G04 #@! TF.SameCoordinates,56F664F7-557E-4C23-82A4-073EF7048267*
G04*
G04*
G04 #@! TF.FilePolarity,Positive*
G04*
G01*
G75*
%ADD12C,0.2540*%
%ADD22R,1.7000X1.7000*%
%ADD23C,1.9000*%
%ADD24R,1.9000X1.9000*%
%ADD25R,1.2380X1.2380*%
%ADD26C,1.2380*%
%ADD27C,2.0000*%
%ADD28C,1.6100*%
%ADD29C,5.1000*%
D12*
X845598Y313686D02*
X856702Y302582D01*
X845598Y508250D02*
X856702Y497146D01*
X811530Y910336D02*
X833998Y887868D01*
X856702Y235167D02*
Y302582D01*
Y410968D02*
Y497146D01*
X833998Y746484D02*
Y887868D01*
X853890Y232355D02*
X856702Y235167D01*
X845598Y399864D02*
X856702Y410968D01*
X845598Y594428D02*
X856702Y605532D01*
X833998Y746484D02*
X856702Y723780D01*
X853890Y160020D02*
Y232355D01*
X845598Y313686D02*
Y399864D01*
Y508250D02*
Y594428D01*
X856702Y605532D02*
Y723780D01*
X894214Y145846D02*
X907980Y132080D01*
X868064Y145846D02*
X894214D01*
X853890Y160020D02*
X868064Y145846D01*
X907980Y132080D02*
X979170D01*
X881760Y910336D02*
X979170D01*
X853820Y938276D02*
X881760Y910336D01*
Y715772D02*
X979170D01*
X853820Y743712D02*
X881760Y715772D01*
X883030Y521208D02*
X979170D01*
X855090Y549148D02*
X883030Y521208D01*
Y326644D02*
X979170D01*
X855090Y354584D02*
X883030Y326644D01*
D22*
X811530Y132080D02*
D03*
X979170D02*
D03*
Y521208D02*
D03*
Y326644D02*
D03*
X811530Y715772D02*
D03*
X979170D02*
D03*
X811530Y326644D02*
D03*
Y521208D02*
D03*
X979170Y910336D02*
D03*
X811530D02*
D03*
X979170Y1104900D02*
D03*
X811530D02*
D03*
D23*
X907980Y132080D02*
D03*
D24*
X882580D02*
D03*
D25*
X853820Y743712D02*
D03*
X853890Y160020D02*
D03*
X853820Y938276D02*
D03*
X855090Y549148D02*
D03*
Y354584D02*
D03*
D26*
X936740Y743712D02*
D03*
X936810Y160020D02*
D03*
X936740Y938276D02*
D03*
X938010Y549148D02*
D03*
Y354584D02*
D03*
D27*
X945350Y792072D02*
D03*
X895350Y771072D02*
D03*
Y965636D02*
D03*
X945350Y986636D02*
D03*
X895350Y576508D02*
D03*
X945350Y597508D02*
D03*
Y402944D02*
D03*
X895350Y381944D02*
D03*
Y187380D02*
D03*
X945350Y208380D02*
D03*
D28*
X845350Y881572D02*
D03*
Y1076136D02*
D03*
Y687008D02*
D03*
Y492444D02*
D03*
Y297880D02*
D03*
D29*
X895350Y830072D02*
D03*
Y1024636D02*
D03*
Y635508D02*
D03*
Y440944D02*
D03*
Y246380D02*
D03*
M02*
