G04*
G04 #@! TF.GenerationSoftware,Altium Limited,Altium Designer,20.2.4 (192)*
G04*
G04 Layer_Color=65535*
%FSLAX44Y44*%
%MOMM*%
G71*
G04*
G04 #@! TF.SameCoordinates,56F664F7-557E-4C23-82A4-073EF7048267*
G04*
G04*
G04 #@! TF.FilePolarity,Positive*
G04*
G01*
G75*
%ADD10C,0.2000*%
%ADD11C,0.1270*%
%ADD12C,0.2540*%
D10*
X843280Y743712D02*
G03*
X843280Y743712I-1000J0D01*
G01*
X843350Y160020D02*
G03*
X843350Y160020I-1000J0D01*
G01*
X843280Y938276D02*
G03*
X843280Y938276I-1000J0D01*
G01*
X844550Y549148D02*
G03*
X844550Y549148I-1000J0D01*
G01*
Y354584D02*
G03*
X844550Y354584I-1000J0D01*
G01*
D11*
X872480Y753312D02*
X880080D01*
X872480Y734112D02*
X880080D01*
X910480D02*
X918080D01*
X910480Y753312D02*
X918080D01*
Y743712D02*
Y753212D01*
Y734112D02*
Y743712D01*
X872480D02*
Y753312D01*
Y734212D02*
Y743712D01*
X863280D02*
X872480D01*
X918080D02*
X927280D01*
X872550Y169620D02*
X880150D01*
X872550Y150420D02*
X880150D01*
X910550D02*
X918150D01*
X910550Y169620D02*
X918150D01*
Y160020D02*
Y169520D01*
Y150420D02*
Y160020D01*
X872550D02*
Y169620D01*
Y150520D02*
Y160020D01*
X863350D02*
X872550D01*
X918150D02*
X927350D01*
X872480Y947876D02*
X880080D01*
X872480Y928676D02*
X880080D01*
X910480D02*
X918080D01*
X910480Y947876D02*
X918080D01*
Y938276D02*
Y947776D01*
Y928676D02*
Y938276D01*
X872480D02*
Y947876D01*
Y928776D02*
Y938276D01*
X863280D02*
X872480D01*
X918080D02*
X927280D01*
X873750Y558748D02*
X881350D01*
X873750Y539548D02*
X881350D01*
X911750D02*
X919350D01*
X911750Y558748D02*
X919350D01*
Y549148D02*
Y558648D01*
Y539548D02*
Y549148D01*
X873750D02*
Y558748D01*
Y539648D02*
Y549148D01*
X864550D02*
X873750D01*
X919350D02*
X928550D01*
X873750Y364184D02*
X881350D01*
X873750Y344984D02*
X881350D01*
X911750D02*
X919350D01*
X911750Y364184D02*
X919350D01*
Y354584D02*
Y364084D01*
Y344984D02*
Y354584D01*
X873750D02*
Y364184D01*
Y345084D02*
Y354584D01*
X864550D02*
X873750D01*
X919350D02*
X928550D01*
D12*
X965350Y760072D02*
Y900072D01*
X825350Y760072D02*
X965350D01*
X825350Y900072D02*
X965350D01*
X825350Y760072D02*
Y900072D01*
Y954636D02*
Y1094636D01*
X965350D01*
X825350Y954636D02*
X965350D01*
Y1094636D01*
X825350Y565508D02*
Y705508D01*
X965350D01*
X825350Y565508D02*
X965350D01*
Y705508D01*
Y370944D02*
Y510944D01*
X825350Y370944D02*
X965350D01*
X825350Y510944D02*
X965350D01*
X825350Y370944D02*
Y510944D01*
Y176380D02*
Y316380D01*
X965350D01*
X825350Y176380D02*
X965350D01*
Y316380D01*
M02*
